<svg width="20" height="20" viewBox="0 0 20 20" fill="none" xmlns="http://www.w3.org/2000/svg">
<path d="M13.5996 16.7094C13.9086 17.2677 14.0417 17.9072 13.9805 18.5421L13.8999 19.3721L12.2405 19.2118L12.3203 18.3826C12.3492 18.0825 12.287 17.78 12.1413 17.5167L11.7376 16.7875L13.1968 15.9802L13.5996 16.7094ZM1.91258 0.998931C4.33889 0.438986 6.51605 1.40245 8.02098 2.42227C8.80704 2.95502 9.44375 3.52467 9.88296 3.95954C10.103 4.17744 10.2748 4.36465 10.394 4.49828C10.4348 4.54405 10.4692 4.58417 10.4974 4.61709C10.5752 4.59249 10.6581 4.57934 10.744 4.57885L15.3485 4.55606C15.6206 4.55474 15.8767 4.68617 16.0337 4.90844L18.0649 7.78848C18.2163 8.00342 18.2573 8.27749 18.1756 8.52741C18.0937 8.77735 17.8984 8.97419 17.6491 9.05801L14.1611 10.2291C14.176 10.2609 14.192 10.2924 14.2067 10.3243L14.2083 10.3267C14.5219 11.0109 14.7878 11.7171 15.0058 12.4369C15.0944 12.7303 15.0154 13.0482 14.7991 13.2654L13.3042 14.7652C13.0993 14.9706 12.8018 15.0549 12.5197 14.9874C11.765 14.8065 11.0349 14.534 10.3452 14.1768C10.3146 14.1627 10.2837 14.148 10.2532 14.1337L9.07973 17.6176C8.99577 17.8667 8.799 18.0623 8.54914 18.1441C8.2993 18.2257 8.0251 18.1847 7.8102 18.0334L4.93992 16.012C4.72113 15.8576 4.58957 15.6067 4.58673 15.3389L4.53953 10.7963C4.53831 10.6715 4.56468 10.5531 4.61278 10.4464C4.58942 10.427 4.56336 10.4057 4.53546 10.3821C4.39818 10.2655 4.20711 10.0954 3.98371 9.87914C3.53832 9.44794 2.95512 8.82023 2.41307 8.03832C1.33898 6.48875 0.347747 4.21305 1.09389 1.63125C1.16465 1.38652 1.34236 1.18805 1.57404 1.0917L1.67658 1.05752L1.91258 0.998931ZM15.7171 14.8564L16.7116 15.9501L17.2723 16.567L16.0386 17.6876L15.4778 17.0707L14.4834 15.9761L13.9235 15.3609L15.1572 14.2395L15.7171 14.8564ZM6.25014 14.8938L7.85822 16.0266L8.6769 13.5958C8.70324 13.5178 8.74007 13.4458 8.78514 13.3817C7.89438 12.8863 7.03598 12.3349 6.21597 11.7297L6.25014 14.8938ZM17.501 12.6916C17.7453 12.8622 18.0369 12.9534 18.3335 12.9521L19.166 12.948L19.1741 14.6147L18.3408 14.6187C17.6991 14.6216 17.0723 14.4245 16.5472 14.058L15.8636 13.5811L16.8182 12.2139L17.501 12.6916ZM7.08592 3.80167C5.82582 2.94776 4.25105 2.29144 2.58397 2.56469C2.26602 4.27694 2.92246 5.84839 3.7827 7.08943C4.24684 7.7589 4.75233 8.30341 5.14256 8.68122C5.33674 8.86921 5.5006 9.01483 5.61375 9.11091C5.66983 9.15851 5.714 9.19394 5.74233 9.2167C5.75638 9.22799 5.76711 9.23711 5.77326 9.24193C5.77602 9.24411 5.77895 9.24681 5.77895 9.24681L5.82046 9.27937C7.39816 10.6517 9.16277 11.7939 11.0605 12.6721L11.0947 12.69C11.5329 12.9182 11.9924 13.1032 12.4652 13.2458L13.2611 12.4483C13.0967 11.9636 12.9061 11.4876 12.693 11.0225C11.8187 9.12832 10.6803 7.3669 9.31085 5.79304C9.30437 5.78559 9.29673 5.77874 9.29051 5.77107C9.29051 5.77107 9.28892 5.76676 9.28644 5.76374C9.28138 5.75762 9.27206 5.74741 9.2604 5.73363C9.2368 5.70575 9.19964 5.66337 9.15054 5.60831C9.05146 5.49722 8.90301 5.33531 8.71027 5.14444C8.32276 4.76075 7.76535 4.26214 7.08592 3.80167ZM11.7986 6.239C12.389 7.04392 12.9281 7.88555 13.4124 8.75853C13.4746 8.71585 13.5433 8.68041 13.6183 8.65518L16.0581 7.83405L14.9228 6.22354L11.7986 6.239Z" fill="#D86B00"/>
</svg>
